<svg version="1.1" id="logo" xmlns="http://www.w3.org/2000/svg" x="0" y="0" viewBox="0 0 248.2 49.7" style="enable-background:new 0 0 248.2 49.7" xml:space="preserve"><path d="M0 48.5V1c0-.6.4-1 1-1h28.2c3.1 0 5.9.7 8.2 2.1C39.8 3.5 41.6 5.5 43 8c1.3 2.5 2 5.4 2 8.7 0 3.4-.7 6.4-2 8.9s-3.2 4.5-5.6 5.9c-2.4 1.4-5.1 2.1-8.2 2.1H16.9c-.5 0-1 .5-1 1v14c0 .5-.4 1-1 1H1c-.6-.1-1-.5-1-1.1zM15.9 21c0 .5.5 1 1 1h7c1.7 0 2.9-.4 3.8-1.3.8-.9 1.3-2.1 1.3-3.8 0-1.1-.2-2.1-.5-2.8s-.9-1.3-1.7-1.7c-.8-.4-1.7-.6-2.8-.6h-7c-.5 0-1 .4-1 1l-.1 8.2zM50.8 9.4h12.3c.5 0 1-.4 1-1V1.1c0-.6-.5-1-1-1H50.8c-.5 0-1 .4-1 1v7.2c0 .6.5 1.1 1 1.1zm0 40.3h12.3c.5 0 1-.5 1-1V14.6c0-.6-.5-1-1-1H50.8c-.5 0-1 .4-1 1v34.1c0 .5.5 1 1 1zM121.3.2H106c-.3 0-.7.2-.9.5l-7.3 12.2h-.3L90.3.6c-.2-.3-.5-.5-.9-.5H72.7c-.8 0-1.3.9-.8 1.6l14.5 21.2c.2.3.2.8 0 1.1L70.2 48.1c-.4.7 0 1.6.8 1.6h15.4c.3 0 .7-.2.9-.5l8.8-14.9h.3l8.8 14.9c.2.3.5.5.9.5h16.8c.8 0 1.3-.9.8-1.6l-16.3-24c-.2-.3-.2-.8 0-1.1L122 1.7c.6-.7.1-1.5-.7-1.5zm9.5 9.2h12.3c.6 0 1-.4 1-1V1.1c0-.6-.4-1-1-1h-12.3c-.6 0-1 .4-1 1v7.2c0 .6.4 1.1 1 1.1zm0 40.3h12.3c.6 0 1-.5 1-1V14.6c0-.6-.4-1-1-1h-12.3c-.6 0-1 .4-1 1v34.1c0 .5.4 1 1 1zm20.3 0H165c.6 0 1-.5 1-1V32.9c0-.5.4-1 1-1h18.7c.6 0 1-.5 1-1v-9.4c0-.5-.4-1-1-1H167c-.6 0-1-.5-1-1V13c0-.6.4-1 1-1h22.1c.6 0 1-.4 1-1V1.1c0-.6-.4-1-1-1h-38c-.6 0-1 .4-1 1v47.5c0 .6.4 1.1 1 1.1zM232.2.2c-.4 0-.7.2-.9.5l-9.2 16h-.3l-9.2-16c-.2-.3-.5-.5-.9-.5h-15.9c-.8 0-1.3.9-.8 1.5l18.5 28.5c.1.2.2.4.2.5v17.9c0 .5.4 1 1 1h13.9c.6 0 1-.5 1-1V30.8c0-.2.1-.4.2-.5L248 1.7c.4-.7-.1-1.5-.8-1.5h-15z" style="fill:#336aea"/></svg>