<?xml version="1.0" encoding="utf-8"?>
<!-- Generator: Adobe Illustrator 28.0.0, SVG Export Plug-In . SVG Version: 6.00 Build 0)  -->
<svg version="1.1" id="logo" xmlns="http://www.w3.org/2000/svg" xmlns:xlink="http://www.w3.org/1999/xlink" x="0px" y="0px"
	 viewBox="0 0 248.2 49.7" style="enable-background:new 0 0 248.2 49.7;" xml:space="preserve">
<style type="text/css">
	.st0{fill:#336AEA;}
</style>
<path class="st0" d="M0,48.5V1c0-0.6,0.4-1,1-1h28.2c3.1,0,5.9,0.7,8.2,2.1C39.8,3.5,41.6,5.5,43,8c1.3,2.5,2,5.4,2,8.7
	c0,3.4-0.7,6.4-2,8.9s-3.2,4.5-5.6,5.9c-2.4,1.4-5.1,2.1-8.2,2.1H16.9c-0.5,0-1,0.5-1,1v14c0,0.5-0.4,1-1,1H1
	C0.4,49.5,0,49.1,0,48.5z M15.9,21c0,0.5,0.5,1,1,1h7c1.7,0,2.9-0.4,3.8-1.3c0.8-0.9,1.3-2.1,1.3-3.8c0-1.1-0.2-2.1-0.5-2.8
	s-0.9-1.3-1.7-1.7C26,12,25.1,11.8,24,11.8h-7c-0.5,0-1,0.4-1,1L15.9,21L15.9,21z M50.8,9.4h12.3c0.5,0,1-0.4,1-1V1.1
	c0-0.6-0.5-1-1-1H50.8c-0.5,0-1,0.4-1,1v7.2C49.8,8.9,50.3,9.4,50.8,9.4z M50.8,49.7h12.3c0.5,0,1-0.5,1-1V14.6c0-0.6-0.5-1-1-1
	H50.8c-0.5,0-1,0.4-1,1v34.1C49.8,49.2,50.3,49.7,50.8,49.7z M121.3,0.2H106c-0.3,0-0.7,0.2-0.9,0.5l-7.3,12.2h-0.3L90.3,0.6
	c-0.2-0.3-0.5-0.5-0.9-0.5H72.7c-0.8,0-1.3,0.9-0.8,1.6l14.5,21.2c0.2,0.3,0.2,0.8,0,1.1L70.2,48.1c-0.4,0.7,0,1.6,0.8,1.6h15.4
	c0.3,0,0.7-0.2,0.9-0.5l8.8-14.9h0.3l8.8,14.9c0.2,0.3,0.5,0.5,0.9,0.5h16.8c0.8,0,1.3-0.9,0.8-1.6l-16.3-24c-0.2-0.3-0.2-0.8,0-1.1
	L122,1.7C122.6,1,122.1,0.2,121.3,0.2z M130.8,9.4h12.3c0.6,0,1-0.4,1-1V1.1c0-0.6-0.4-1-1-1h-12.3c-0.6,0-1,0.4-1,1v7.2
	C129.8,8.9,130.2,9.4,130.8,9.4z M130.8,49.7h12.3c0.6,0,1-0.5,1-1V14.6c0-0.6-0.4-1-1-1h-12.3c-0.6,0-1,0.4-1,1v34.1
	C129.8,49.2,130.2,49.7,130.8,49.7z M151.1,49.7H165c0.6,0,1-0.5,1-1V32.9c0-0.5,0.4-1,1-1h18.7c0.6,0,1-0.5,1-1v-9.4
	c0-0.5-0.4-1-1-1H167c-0.6,0-1-0.5-1-1V13c0-0.6,0.4-1,1-1h22.1c0.6,0,1-0.4,1-1V1.1c0-0.6-0.4-1-1-1h-38c-0.6,0-1,0.4-1,1v47.5
	C150.1,49.2,150.5,49.7,151.1,49.7z M232.2,0.2c-0.4,0-0.7,0.2-0.9,0.5l-9.2,16h-0.3l-9.2-16c-0.2-0.3-0.5-0.5-0.9-0.5h-15.9
	c-0.8,0-1.3,0.9-0.8,1.5l18.5,28.5c0.1,0.2,0.2,0.4,0.2,0.5v17.9c0,0.5,0.4,1,1,1h13.9c0.6,0,1-0.5,1-1V30.8c0-0.2,0.1-0.4,0.2-0.5
	L248,1.7c0.4-0.7-0.1-1.5-0.8-1.5C247.2,0.2,232.2,0.2,232.2,0.2z"/>
</svg>
