<?xml version="1.0" encoding="utf-8"?>
<!-- Generator: Adobe Illustrator 28.0.0, SVG Export Plug-In . SVG Version: 6.00 Build 0)  -->
<svg version="1.1" id="Слой_1" xmlns="http://www.w3.org/2000/svg" xmlns:xlink="http://www.w3.org/1999/xlink" x="0px" y="0px"
	 viewBox="0 0 512 512" style="enable-background:new 0 0 512 512;" xml:space="preserve">
<style type="text/css">
	.st0{fill:#336AEA;}
</style>
<g>
	<path class="st0" d="M88.3,56c-4.3,0-7.79,3.62-7.79,8.07v78.62c0,4.46,3.62,8.07,8.07,8.07h107.76c4.46,0,8.07-3.62,8.07-8.07
		V64.07c0-4.46-3.62-8.07-8.07-8.07H88.3z"/>
	<g>
		<path class="st0" d="M415.79,120.54c-10.47-20.15-24.95-35.95-43.45-47.38C353.84,61.72,332.44,56,308.14,56h-64.72
			c-4.46,0-8.07,3.62-8.07,8.07v78.62c0,4.46,3.62,8.07,8.07,8.07h23.23c8.97,0,16.35,1.55,22.15,4.65
			c5.79,3.11,10.09,7.66,12.89,13.66c2.8,6.02,4.21,13.67,4.21,22.97c0,13.57-3.28,23.84-9.81,30.81
			c-6.55,6.98-16.36,10.46-29.44,10.46H88.59c-4.46,0-8.07,3.62-8.07,8.07v206.53c0,4.46,3.49,8.07,7.79,8.07h108.34
			c4.3,0,7.79-3.62,7.79-8.07V335.01c0-4.46,3.49-8.07,7.79-8.07h95.94c23.92,0,45.13-5.61,63.64-16.86
			c18.5-11.24,33.08-27.04,43.73-47.38c10.65-20.35,15.98-44.28,15.98-71.8C431.49,164.14,426.25,140.69,415.79,120.54z"/>
	</g>
</g>
</svg>
